<svg width="30" height="30" viewBox="0 0 30 30" fill="none" xmlns="http://www.w3.org/2000/svg">
<g clip-path="url(#clip0_2737_4379)">
<path fill-rule="evenodd" clip-rule="evenodd" d="M3.84619 4.03844C3.84619 3.5074 4.27669 3.0769 4.80773 3.0769H8.65388C9.11218 3.0769 9.50678 3.40035 9.59672 3.84973L10.4043 7.8846H25.9616C26.2481 7.8846 26.5198 8.01241 26.7024 8.23321C26.8851 8.454 26.9598 8.74477 26.9061 9.02626L25.3663 17.1008C25.2344 17.7648 24.8731 18.3613 24.3457 18.7858C23.821 19.2082 23.1651 19.4336 22.4917 19.4231H13.1622C12.4889 19.4336 11.8329 19.2082 11.3082 18.7858C10.781 18.3615 10.4199 17.7653 10.2879 17.1016C10.2878 17.1013 10.2879 17.1019 10.2879 17.1016L8.68157 9.07614C8.67505 9.04959 8.66964 9.02261 8.66538 8.99525L7.86573 4.99998H4.80773C4.27669 4.99998 3.84619 4.56949 3.84619 4.03844ZM10.7892 9.80767L12.1739 16.7261C12.2179 16.9475 12.3383 17.1463 12.5141 17.2878C12.6899 17.4293 12.9098 17.5045 13.1355 17.5002L13.1539 17.5H22.5L22.5185 17.5002C22.7441 17.5045 22.964 17.4293 23.1398 17.2878C23.3148 17.147 23.4349 16.9493 23.4794 16.7292L24.7993 9.80767H10.7892ZM10.577 23.2692C10.577 22.2071 11.438 21.3461 12.5 21.3461C13.5621 21.3461 14.4231 22.2071 14.4231 23.2692C14.4231 24.3313 13.5621 25.1923 12.5 25.1923C11.438 25.1923 10.577 24.3313 10.577 23.2692ZM21.1539 23.2692C21.1539 22.2071 22.0149 21.3461 23.077 21.3461C24.139 21.3461 25 22.2071 25 23.2692C25 24.3313 24.139 25.1923 23.077 25.1923C22.0149 25.1923 21.1539 24.3313 21.1539 23.2692Z" fill="#101828"/>
</g>
<defs>
<clipPath id="clip0_2737_4379">
<rect width="23.0769" height="23.0769" fill="white" transform="translate(3.84619 3.0769)"/>
</clipPath>
</defs>
</svg>
