<svg width="20" height="20" viewBox="0 0 20 20" fill="none" xmlns="http://www.w3.org/2000/svg">
<g clip-path="url(#clip0_2737_6872)">
<path fill-rule="evenodd" clip-rule="evenodd" d="M3.33325 2.50004C3.11224 2.50004 2.90028 2.58784 2.744 2.74412C2.58772 2.9004 2.49992 3.11236 2.49992 3.33337V10.8334C2.49992 11.0544 2.58772 11.2663 2.744 11.4226C2.90028 11.5789 3.11224 11.6667 3.33325 11.6667H4.16658C4.62682 11.6667 4.99992 12.0398 4.99992 12.5C4.99992 12.9603 4.62682 13.3334 4.16658 13.3334H3.33325C2.67021 13.3334 2.03433 13.07 1.56548 12.6011C1.09664 12.1323 0.833252 11.4964 0.833252 10.8334V3.33337C0.833252 2.67033 1.09664 2.03445 1.56548 1.56561C2.03433 1.09677 2.67021 0.833374 3.33325 0.833374H10.8333C11.4963 0.833374 12.1322 1.09677 12.601 1.56561C13.0699 2.03445 13.3333 2.67033 13.3333 3.33337V4.16671C13.3333 4.62694 12.9602 5.00004 12.4999 5.00004C12.0397 5.00004 11.6666 4.62694 11.6666 4.16671V3.33337C11.6666 3.11236 11.5788 2.9004 11.4225 2.74412C11.2662 2.58784 11.0543 2.50004 10.8333 2.50004H3.33325ZM9.16658 8.33337C8.70635 8.33337 8.33325 8.70647 8.33325 9.16671V16.6667C8.33325 17.1269 8.70635 17.5 9.16658 17.5H16.6666C17.1268 17.5 17.4999 17.1269 17.4999 16.6667V9.16671C17.4999 8.70647 17.1268 8.33337 16.6666 8.33337H9.16658ZM6.66658 9.16671C6.66658 7.786 7.78587 6.66671 9.16658 6.66671H16.6666C18.0473 6.66671 19.1666 7.786 19.1666 9.16671V16.6667C19.1666 18.0474 18.0473 19.1667 16.6666 19.1667H9.16658C7.78587 19.1667 6.66658 18.0474 6.66658 16.6667V9.16671Z" fill="#434244"/>
</g>
<defs>
<clipPath id="clip0_2737_6872">
<rect width="20" height="20" fill="white"/>
</clipPath>
</defs>
</svg>
