<svg width="20" height="20" viewBox="0 0 20 20" fill="none" xmlns="http://www.w3.org/2000/svg">
<path fill-rule="evenodd" clip-rule="evenodd" d="M1.66675 5.00002C1.66675 4.53978 2.03984 4.16669 2.50008 4.16669H17.5001C17.9603 4.16669 18.3334 4.53978 18.3334 5.00002C18.3334 5.46026 17.9603 5.83335 17.5001 5.83335H2.50008C2.03984 5.83335 1.66675 5.46026 1.66675 5.00002ZM4.16675 10C4.16675 9.53978 4.53984 9.16669 5.00008 9.16669H15.0001C15.4603 9.16669 15.8334 9.53978 15.8334 10C15.8334 10.4603 15.4603 10.8334 15.0001 10.8334H5.00008C4.53984 10.8334 4.16675 10.4603 4.16675 10ZM6.66675 15C6.66675 14.5398 7.03984 14.1667 7.50008 14.1667H12.5001C12.9603 14.1667 13.3334 14.5398 13.3334 15C13.3334 15.4603 12.9603 15.8334 12.5001 15.8334H7.50008C7.03984 15.8334 6.66675 15.4603 6.66675 15Z" fill="#101828"/>
</svg>
