<svg width="18" height="12" viewBox="0 0 18 12" fill="none" xmlns="http://www.w3.org/2000/svg">
<path fill-rule="evenodd" clip-rule="evenodd" d="M0.666748 1.00002C0.666748 0.539783 1.03984 0.166687 1.50008 0.166687H16.5001C16.9603 0.166687 17.3334 0.539783 17.3334 1.00002C17.3334 1.46026 16.9603 1.83335 16.5001 1.83335H1.50008C1.03984 1.83335 0.666748 1.46026 0.666748 1.00002ZM3.16675 6.00002C3.16675 5.53978 3.53984 5.16669 4.00008 5.16669H14.0001C14.4603 5.16669 14.8334 5.53978 14.8334 6.00002C14.8334 6.46026 14.4603 6.83335 14.0001 6.83335H4.00008C3.53984 6.83335 3.16675 6.46026 3.16675 6.00002ZM5.66675 11C5.66675 10.5398 6.03984 10.1667 6.50008 10.1667H11.5001C11.9603 10.1667 12.3334 10.5398 12.3334 11C12.3334 11.4603 11.9603 11.8334 11.5001 11.8334H6.50008C6.03984 11.8334 5.66675 11.4603 5.66675 11Z" fill="#101828"/>
</svg>
