<svg width="30" height="30" viewBox="0 0 30 30" fill="none" xmlns="http://www.w3.org/2000/svg">
<path d="M2.10422 9.31979C2.22472 7.46469 3.7162 6.01084 5.57294 5.91886C8.26161 5.78565 12.1045 5.625 15 5.625C17.8955 5.625 21.7384 5.78565 24.4271 5.91886C26.2838 6.01084 27.7753 7.46469 27.8958 9.31979C28.0112 11.0971 28.125 13.2841 28.125 15C28.125 16.7159 28.0112 18.9029 27.8958 20.6802C27.7753 22.5353 26.2838 23.9892 24.4271 24.0811C21.7384 24.2143 17.8955 24.375 15 24.375C12.1045 24.375 8.26161 24.2143 5.57294 24.0811C3.7162 23.9892 2.22472 22.5353 2.10422 20.6802C1.98878 18.9029 1.875 16.7159 1.875 15C1.875 13.2841 1.98878 11.0971 2.10422 9.31979Z" fill="#FC0D1B"/>
<path d="M12.1875 11.25V18.75L19.6875 15L12.1875 11.25Z" fill="white"/>
</svg>
